<svg width="14" height="14" viewBox="0 0 14 14" fill="none" xmlns="http://www.w3.org/2000/svg">
<path fill-rule="evenodd" clip-rule="evenodd" d="M8.87309 1H2C0.895431 1 0 1.89543 0 3V12C0 13.1046 0.895431 14 2 14H11C12.1046 14 13 13.1046 13 12V5.12691L12 6.11748V12C12 12.5523 11.5523 13 11 13H2C1.44772 13 1 12.5523 1 12V3C1 2.44772 1.44772 2 2 2H7.88252L8.87309 1Z" fill="#6D6D6D"/>
<path fill-rule="evenodd" clip-rule="evenodd" d="M4 7.34007L10.6943 0.582031L13.4176 3.30532L6.65954 9.9996H4L4 7.34007ZM5 8.9996V7.75151L10.6976 1.9996L12 3.30196L6.2481 8.9996H5Z" fill="#6D6D6D"/>
</svg>
