<svg width="45" height="45" viewBox="0 0 45 45" fill="none" xmlns="http://www.w3.org/2000/svg">
<path fill-rule="evenodd" clip-rule="evenodd" d="M24.8731 16H18C16.8954 16 16 16.8954 16 18V27C16 28.1046 16.8954 29 18 29H27C28.1046 29 29 28.1046 29 27V20.1269L28 21.1175V27C28 27.5523 27.5523 28 27 28H18C17.4477 28 17 27.5523 17 27V18C17 17.4477 17.4477 17 18 17H23.8825L24.8731 16Z" fill="#DBFF00"/>
<path fill-rule="evenodd" clip-rule="evenodd" d="M20 22.3404L26.6943 15.5824L29.4176 18.3057L22.6595 25H20V22.3404ZM21 24V22.7519L26.6976 17L28 18.3023L22.2481 24H21Z" fill="#DBFF00"/>
</svg>
