<svg width="12" height="12" viewBox="0 0 12 12" fill="none" xmlns="http://www.w3.org/2000/svg">
<path d="M9.28278 4.39149C8.27268 4.39149 7.4141 5.10041 7.21208 6.03718L6.404 6.03718L6.404 4.84722C7.36359 4.66999 8.12117 3.78385 8.12117 2.7458C8.12117 1.55585 7.16157 0.59375 5.9747 0.59375C4.78783 0.59375 3.82824 1.55585 3.82824 2.7458C3.82824 3.80917 4.58581 4.66999 5.57066 4.84722L5.57066 6.03718L4.76258 6.03718C4.53531 5.10041 3.70198 4.39149 2.69187 4.39149C1.50501 4.39149 0.54541 5.35359 0.54541 6.54355C0.54541 7.73351 1.50501 8.6956 2.69187 8.6956C3.77773 8.6956 4.66157 7.88542 4.81309 6.84737L5.59591 6.84737L5.59591 8.8222C5.52016 9.22729 5.4444 9.53111 5.29288 9.75897C5.16662 9.98684 4.98985 10.1894 4.78783 10.316C4.58581 10.4426 4.35854 10.5185 4.08076 10.5692C3.82824 10.5945 3.52521 10.6198 3.24743 10.6198L3.24743 11.5566L5.59591 11.5566L6.404 11.5566L8.75248 11.5566L8.75248 10.6198C8.44945 10.6198 8.17167 10.5945 7.91915 10.5692C7.66662 10.5438 7.4141 10.4426 7.21208 10.316C7.01006 10.1894 6.83329 10.0122 6.70703 9.75897C6.58076 9.53111 6.47975 9.20197 6.404 8.8222V8.79688L6.404 6.84737L7.18682 6.84737C7.33834 7.88542 8.22218 8.6956 9.30804 8.6956C10.4949 8.6956 11.4545 7.73351 11.4545 6.54355C11.404 5.35359 10.4444 4.39149 9.28278 4.39149Z" fill="#0A0A0A"/>
</svg>
