<svg width="12" height="12" viewBox="0 0 12 12" fill="none" xmlns="http://www.w3.org/2000/svg">
<path d="M8.85116 3.83721C7.82791 3.83721 6.95814 4.55349 6.75349 5.5H5.93488V4.29767C6.90698 4.1186 7.67442 3.22326 7.67442 2.17442C7.67442 0.972093 6.70233 0 5.5 0C4.29767 0 3.32558 0.972093 3.32558 2.17442C3.32558 3.24884 4.09302 4.1186 5.0907 4.29767V5.5H4.27209C4.04186 4.55349 3.19767 3.83721 2.17442 3.83721C0.972093 3.83721 0 4.8093 0 6.01163C0 7.21395 0.972093 8.18605 2.17442 8.18605C3.27442 8.18605 4.16977 7.36744 4.32326 6.3186H5.11628V8.31395C5.03954 8.72326 4.96279 9.03023 4.8093 9.26047C4.6814 9.4907 4.50233 9.69535 4.29767 9.82326C4.09302 9.95116 3.86279 10.0279 3.5814 10.0791C3.32558 10.1047 3.0186 10.1302 2.73721 10.1302V11.0767H5.11628H5.93488H8.31395V10.1302C8.00698 10.1302 7.72558 10.1047 7.46977 10.0791C7.21395 10.0535 6.95814 9.95116 6.75349 9.82326C6.54884 9.69535 6.36977 9.51628 6.24186 9.26047C6.11395 9.03023 6.01163 8.69767 5.93488 8.31395V8.28837V6.3186H6.72791C6.8814 7.36744 7.77674 8.18605 8.87674 8.18605C10.0791 8.18605 11.0512 7.21395 11.0512 6.01163C11 4.8093 10.0279 3.83721 8.85116 3.83721Z" fill="#79E62B"/>
</svg>
