<svg width="54" height="54" viewBox="0 0 54 54" fill="none" xmlns="http://www.w3.org/2000/svg">
<path d="M46.6762 33.181C43.2363 33.181 40.4477 30.3924 40.4477 26.9524C40.4477 23.5125 43.2363 20.7239 46.6762 20.7239C50.1162 20.7239 52.9048 23.5125 52.9048 26.9524C52.9048 30.3924 50.1162 33.181 46.6762 33.181Z" stroke="#DBFF00"/>
<circle cx="7.22846" cy="26.9524" r="6.22857" transform="rotate(90 7.22846 26.9524)" stroke="#DBFF00"/>
<path d="M40.4478 26.9525L13.4573 26.9525" stroke="#DBFF00" stroke-linejoin="round"/>
<circle cx="26.9526" cy="46.6762" r="6.22857" transform="rotate(-180 26.9526 46.6762)" stroke="#DBFF00"/>
<circle cx="26.9526" cy="7.22859" r="6.22857" transform="rotate(-180 26.9526 7.22859)" stroke="#DBFF00"/>
<path d="M26.9526 40.4476L26.9526 13.4572" stroke="#DBFF00"/>
<path d="M26.9189 48.7576C25.7553 48.7576 24.812 47.8143 24.812 46.6507C24.812 45.487 25.7553 44.5437 26.9189 44.5437C28.0826 44.5437 29.0259 45.487 29.0259 46.6507C29.0259 47.8143 28.0826 48.7576 26.9189 48.7576Z" fill="white"/>
<path d="M26.9189 9.42778C25.7553 9.42778 24.812 8.48446 24.812 7.32082C24.812 6.15718 25.7553 5.21387 26.9189 5.21387C28.0826 5.21387 29.0259 6.15718 29.0259 7.32082C29.0259 8.48446 28.0826 9.42778 26.9189 9.42778Z" fill="white"/>
</svg>
