<svg width="54" height="54" viewBox="0 0 54 54" fill="none" xmlns="http://www.w3.org/2000/svg">
<path d="M46.6765 33.181C43.2365 33.181 40.4479 30.3924 40.4479 26.9524C40.4479 23.5125 43.2365 20.7239 46.6765 20.7239C50.1164 20.7239 52.905 23.5125 52.905 26.9524C52.905 30.3924 50.1164 33.181 46.6765 33.181Z" stroke="#F10A4B"/>
<circle cx="7.22846" cy="26.9524" r="6.22857" transform="rotate(90 7.22846 26.9524)" stroke="#F10A4B"/>
<path d="M40.4478 26.9525L13.4573 26.9525" stroke="#F10A4B" stroke-linejoin="round"/>
<circle cx="26.9523" cy="46.6762" r="6.22857" transform="rotate(-180 26.9523 46.6762)" stroke="#F10A4B"/>
<circle cx="26.9523" cy="7.22859" r="6.22857" transform="rotate(-180 26.9523 7.22859)" stroke="#F10A4B"/>
<path d="M26.9524 40.4476L26.9524 13.4572" stroke="#F10A4B"/>
<path d="M26.9192 48.7576C25.7555 48.7576 24.8122 47.8143 24.8122 46.6507C24.8122 45.487 25.7555 44.5437 26.9192 44.5437C28.0828 44.5437 29.0261 45.487 29.0261 46.6507C29.0261 47.8143 28.0828 48.7576 26.9192 48.7576Z" fill="white"/>
<path d="M26.9192 9.42778C25.7555 9.42778 24.8122 8.48446 24.8122 7.32082C24.8122 6.15718 25.7555 5.21387 26.9192 5.21387C28.0828 5.21387 29.0261 6.15718 29.0261 7.32082C29.0261 8.48446 28.0828 9.42778 26.9192 9.42778Z" fill="white"/>
</svg>
