<svg width="14" height="18" viewBox="0 0 14 18" fill="none" xmlns="http://www.w3.org/2000/svg">
<path fill-rule="evenodd" clip-rule="evenodd" d="M13.3114 6.36626C13.3114 9.88224 10.4611 12.7325 6.94513 12.7325C5.89562 12.7325 4.90542 12.4786 4.03264 12.0287L0.911638 17.4345L0 16.9081L3.13952 11.4703C1.58518 10.3095 0.578872 8.45541 0.578872 6.36626C0.578872 2.85027 3.42914 0 6.94513 0C10.4611 0 13.3114 2.85027 13.3114 6.36626ZM12.1539 6.36629C12.1539 9.243 9.82181 11.575 6.9451 11.575C4.06838 11.575 1.73634 9.243 1.73634 6.36629C1.73634 3.48957 4.06838 1.15753 6.9451 1.15753C9.82181 1.15753 12.1539 3.48957 12.1539 6.36629Z" fill="#F10A4B"/>
</svg>
