<svg width="41" height="41" viewBox="0 0 41 41" fill="none" xmlns="http://www.w3.org/2000/svg">
<circle r="20" transform="matrix(1 0 0 -1 20.5 20.5)" stroke="#676767"/>
<path d="M13.9629 21.1912C13.8245 21.0253 13.7102 20.8811 13.6222 20.7667C13.7102 20.6523 13.8245 20.508 13.9629 20.3422C14.3245 19.9088 14.8471 19.3317 15.491 18.7561C16.7956 17.5899 18.5198 16.5 20.3667 16.5C22.2135 16.5 23.9377 17.5899 25.2423 18.7561C25.8863 19.3317 26.4089 19.9088 26.7704 20.3422C26.9088 20.508 27.0231 20.6523 27.1112 20.7667C27.0231 20.8811 26.9088 21.0253 26.7704 21.1912C26.4089 21.6246 25.8863 22.2016 25.2423 22.7772C23.9377 23.9434 22.2135 25.0333 20.3667 25.0333C18.5198 25.0333 16.7956 23.9434 15.491 22.7772C14.8471 22.2016 14.3245 21.6246 13.9629 21.1912Z" stroke="#DBFF00"/>
<circle cx="20.3666" cy="20.7667" r="1.3" fill="#DBFF00"/>
</svg>
