<svg width="45" height="45" viewBox="0 0 45 45" fill="none" xmlns="http://www.w3.org/2000/svg">
<path fill-rule="evenodd" clip-rule="evenodd" d="M22.5 28C25.5376 28 28 25.5376 28 22.5C28 19.4624 25.5376 17 22.5 17C19.6407 17 17.2911 19.1818 17.0251 21.9714L16.004 22.7294C16.0013 22.6533 16 22.5768 16 22.5C16 18.9101 18.9101 16 22.5 16C26.0899 16 29 18.9101 29 22.5C29 26.0899 26.0899 29 22.5 29C19.6872 29 17.2918 27.2134 16.3865 24.7131L17.232 24.0855C17.9126 26.3501 20.0136 28 22.5 28Z" fill="#DBFF00"/>
<path fill-rule="evenodd" clip-rule="evenodd" d="M13.6877 21.3905L14.3124 20.6096L16.5001 22.3598L18.6877 20.6096L19.3124 21.3905L16.5001 23.6404L13.6877 21.3905Z" fill="#DBFF00"/>
<path d="M22 19H23V23H22V19Z" fill="#DBFF00"/>
<path d="M24.9704 24.5723L24.2633 25.2794L22 23.0161L22.0447 22.3537L22.7071 22.309L24.9704 24.5723Z" fill="#DBFF00"/>
</svg>
