<svg width="45" height="45" viewBox="0 0 45 45" fill="none" xmlns="http://www.w3.org/2000/svg">
<path d="M15.052 23.0391C14.8721 22.8235 14.7272 22.6393 14.621 22.5C14.7272 22.3607 14.8721 22.1765 15.052 21.9609C15.4709 21.4588 16.0765 20.7901 16.823 20.1228C18.3327 18.7733 20.3402 17.5 22.5 17.5C24.6598 17.5 26.6673 18.7733 28.177 20.1228C28.9235 20.7901 29.5291 21.4588 29.948 21.9609C30.1279 22.1765 30.2728 22.3607 30.379 22.5C30.2728 22.6393 30.1279 22.8235 29.948 23.0391C29.5291 23.5412 28.9235 24.2099 28.177 24.8772C26.6673 26.2267 24.6598 27.5 22.5 27.5C20.3402 27.5 18.3327 26.2267 16.823 24.8772C16.0765 24.2099 15.4709 23.5412 15.052 23.0391Z" stroke="#DBFF00"/>
<circle cx="22.5" cy="22.5" r="1.5" fill="#DBFF00"/>
</svg>
