<svg width="9" height="5" viewBox="0 0 9 5" fill="none" xmlns="http://www.w3.org/2000/svg">
<path d="M4.54841 0.483874C4.25809 0.483874 4.06454 0.580649 4.06454 0.774198V4.06454H2.70969L1.06452 0.967748V3.29034C1.06452 3.48389 1.25807 3.58067 1.5484 3.58067V4.06454H0V3.58067C0.290324 3.58067 0.483874 3.48389 0.483874 3.29034V0.677423C0.483874 0.483874 0.290324 0.387099 0 0.387099V0H1.74195L3.48389 3.09679V0.677423C3.48389 0.483874 3.29034 0.387099 3.00002 0.387099V0H4.54841V0.483874Z" fill="#0A0A0A"/>
<path d="M9.00018 1.64517H8.51631C8.51631 1.25807 8.41953 0.967748 8.32276 0.774198C8.22598 0.677423 8.12921 0.580649 7.83889 0.580649H7.54856V3.38712C7.54856 3.58067 7.74211 3.67744 8.03243 3.67744V4.16132H5.90339V3.58067C6.19371 3.58067 6.38726 3.48389 6.38726 3.29034V0.580649H6.00016C5.80661 0.580649 5.70984 0.677423 5.51629 0.774198C5.41952 0.967748 5.41952 1.25807 5.32274 1.64517H4.83887V0H9.00018V1.64517Z" fill="#0A0A0A"/>
</svg>
