<svg width="48" height="54" viewBox="0 0 48 54" fill="none" xmlns="http://www.w3.org/2000/svg">
<rect x="0.5" y="15.3579" width="46.2405" height="21.9454" stroke="#F10A4B"/>
<path d="M12.0589 32.227C8.75338 32.227 6.07376 29.5474 6.07376 26.2419C6.07376 22.9365 8.75338 20.2568 12.0589 20.2568C15.3643 20.2568 18.0439 22.9365 18.0439 26.2419C18.0439 29.5474 15.3643 32.227 12.0589 32.227Z" fill="white" stroke="black" stroke-width="0.674864"/>
<path d="M35.0931 33.7541C30.9932 33.7541 27.6696 30.4305 27.6696 26.3306C27.6696 22.2307 30.9932 18.9071 35.0931 18.9071C39.193 18.9071 42.5166 22.2307 42.5166 26.3306C42.5166 30.4305 39.193 33.7541 35.0931 33.7541Z" stroke="#F10A4B"/>
<path d="M35.0931 28.3552C33.9749 28.3552 33.0685 27.4488 33.0685 26.3306C33.0685 25.2125 33.9749 24.306 35.0931 24.306C36.2112 24.306 37.1177 25.2125 37.1177 26.3306C37.1177 27.4488 36.2112 28.3552 35.0931 28.3552Z" fill="#F10A4B"/>
<path d="M35.4305 5.40984C34.1259 5.40984 33.0684 4.35233 33.0684 3.04782C33.0684 1.74331 34.1259 0.685791 35.4305 0.685791C36.735 0.685791 37.7925 1.74331 37.7925 3.04782C37.7925 4.35233 36.735 5.40984 35.4305 5.40984Z" fill="#F10A4B"/>
<path d="M12.4849 5.40984C11.1804 5.40984 10.1229 4.35233 10.1229 3.04782C10.1229 1.74331 11.1804 0.685791 12.4849 0.685791C13.7894 0.685791 14.8469 1.74331 14.8469 3.04782C14.8469 4.35233 13.7894 5.40984 12.4849 5.40984Z" fill="#F10A4B"/>
<path d="M12.1475 28.3552C11.0294 28.3552 10.1229 27.4488 10.1229 26.3306C10.1229 25.2125 11.0294 24.306 12.1475 24.306C13.2657 24.306 14.1721 25.2125 14.1721 26.3306C14.1721 27.4488 13.2657 28.3552 12.1475 28.3552Z" fill="black"/>
<rect x="10.5" y="46.4017" width="25.3197" height="7.09837" rx="3.54919" fill="white" stroke="#04090F"/>
<line x1="23.1407" y1="46.5765" x2="23.1407" y2="53.3252" stroke="#04090F" stroke-width="0.674864"/>
<line x1="16.3374" y1="46.5765" x2="16.3374" y2="53.3252" stroke="#04090F" stroke-width="0.674864"/>
<line x1="30.5096" y1="46.5765" x2="30.5096" y2="53.3252" stroke="#04090F" stroke-width="0.674864"/>
<line x1="35.2678" y1="15.5327" x2="35.2678" y2="4.06002" stroke="#F10A4B"/>
<line x1="12.3223" y1="15.5327" x2="12.3223" y2="4.06002" stroke="#F10A4B"/>
</svg>
