<svg width="45" height="45" viewBox="0 0 45 45" fill="none" xmlns="http://www.w3.org/2000/svg">
<path fill-rule="evenodd" clip-rule="evenodd" d="M22.5 16.5C21.3954 16.5 20.5 17.3954 20.5 18.5C20.5 19.6046 21.3954 20.5 22.5 20.5C23.6046 20.5 24.5 19.6046 24.5 18.5C24.5 17.3954 23.6046 16.5 22.5 16.5ZM19.5 18.5C19.5 16.8431 20.8431 15.5 22.5 15.5C24.1569 15.5 25.5 16.8431 25.5 18.5C25.5 20.1569 24.1569 21.5 22.5 21.5C20.8431 21.5 19.5 20.1569 19.5 18.5Z" fill="#DBFF00"/>
<path fill-rule="evenodd" clip-rule="evenodd" d="M23 24H22C19.2386 24 17 26.2386 17 29H28C28 26.2386 25.7614 24 23 24ZM22 23C18.6863 23 16 25.6863 16 29V30H29V29C29 25.6863 26.3137 23 23 23H22Z" fill="#DBFF00"/>
</svg>
