<svg width="41" height="41" viewBox="0 0 41 41" fill="none" xmlns="http://www.w3.org/2000/svg">
<circle cx="20.5" cy="20.5" r="20.5" fill="#FFEA31"/>
<path d="M14.2787 21.7164C16.557 21.7164 18.4039 19.8694 18.4039 17.5911C18.4039 15.3128 16.557 13.4658 14.2787 13.4658C12.0004 13.4658 10.1534 15.3128 10.1534 17.5911C10.1534 19.8694 12.0004 21.7164 14.2787 21.7164Z" fill="#141114"/>
<path d="M26.533 21.7167C28.8115 21.7167 30.6586 19.8696 30.6586 17.5911C30.6586 15.3126 28.8115 13.4655 26.533 13.4655C24.2545 13.4655 22.4075 15.3126 22.4075 17.5911C22.4075 19.8696 24.2545 21.7167 26.533 21.7167Z" fill="#141114"/>
<path d="M20.5 41.724C23.3834 41.7267 26.2369 41.1401 28.8853 40.0001C31.5338 38.8602 33.9213 37.1909 35.9013 35.0949C34.7672 32.8703 32.5829 31.9646 29.4302 31.8554C29.2971 31.8481 29.1635 31.8439 29.0289 31.8439H11.7634C11.6802 31.8439 11.5974 31.8456 11.5151 31.849C11.464 31.8515 11.4131 31.853 11.3625 31.8557C9.56357 31.9159 8.08003 32.2388 6.92637 32.9163C6.14619 33.4723 5.50423 34.2002 5.05005 35.0437C7.03124 37.155 9.42466 38.8373 12.0822 39.9863C14.7397 41.1354 17.6047 41.7268 20.5 41.724Z" fill="#141114"/>
<path d="M29.0299 31.8439H11.7634C11.6802 31.8439 11.5974 31.8456 11.5151 31.849C11.464 31.8515 11.4131 31.853 11.3625 31.8557C10.8627 31.8718 10.3639 31.9131 9.86816 31.9794V38.8665C13.0329 40.6996 16.6176 41.6835 20.2747 41.723C23.9317 41.7624 27.5368 40.856 30.7403 39.0916V31.9541C30.3244 31.9039 29.888 31.871 29.4311 31.8554C29.298 31.8484 29.1635 31.8439 29.0299 31.8439Z" fill="#232224"/>
<path d="M17.247 41.4757C19.3746 41.8027 21.5394 41.8068 23.6682 41.4877L26.8158 31.9821H14.1523L17.247 41.4757Z" fill="#141114"/>
<path d="M16.3287 23.2367V31.9351L18.3655 33.9571C18.9177 34.5053 19.6646 34.8123 20.4427 34.811C21.2208 34.8096 21.9666 34.5 22.5169 33.9499L24.5311 31.9354V23.237L16.3287 23.2367Z" fill="#19171A"/>
<path d="M16.3209 29.5808C17.396 30.2258 18.8296 30.5072 20.4095 30.5232H20.3493H20.5473H20.4871C22.0462 30.5072 23.4623 30.2333 24.5329 29.6055V26.4587H16.3209V29.5808Z" fill="#141114"/>
<path d="M20.4787 5.32571C20.5061 5.32571 20.5331 5.3233 20.5605 5.3233H20.2957C20.3231 5.3233 20.3501 5.32541 20.3775 5.32571C15.8797 5.36905 12.2637 7.01874 12.2637 11.5398V23.1421C12.2637 27.6635 15.8797 29.3123 20.3775 29.3569C20.3501 29.3569 20.3231 29.359 20.2957 29.359H20.5605C20.5331 29.359 20.5061 29.3569 20.4787 29.3569C24.9765 29.3141 28.5916 27.6632 28.5916 23.1421V11.5401C28.5916 7.01935 24.9765 5.36935 20.4787 5.32571Z" fill="#19171A"/>
<path d="M18.4693 26.1773L17.1699 27.4764C18.2303 27.7587 19.3233 27.8999 20.4205 27.8962C20.3959 27.8962 20.3718 27.8962 20.3474 27.8962H20.5837C20.5593 27.8962 20.5352 27.8962 20.5108 27.8962C21.6279 27.9004 22.7403 27.7536 23.818 27.4598L22.4877 26.1295L27.7437 20.8722V12.4513C27.7437 8.5168 24.5196 7.08111 20.5102 7.04318C20.5346 7.04318 20.559 7.04108 20.5831 7.04108H20.3468C20.3715 7.04108 20.3956 7.04288 20.4199 7.04318C16.4103 7.08081 13.1862 8.518 13.1862 12.4513V20.8941L18.4693 26.1773Z" fill="#D12333"/>
<path d="M23.9828 16.7709H25.1367C25.5224 16.7709 25.8924 16.9242 26.1651 17.1969C26.4378 17.4696 26.5911 17.8396 26.5911 18.2253V18.8664C26.5911 19.3837 26.3856 19.8799 26.0197 20.2457C25.6539 20.6115 25.1578 20.8171 24.6404 20.8171H24.486C23.9559 20.8171 23.4475 20.6065 23.0726 20.2316C22.6978 19.8568 22.4872 19.3483 22.4872 18.8182V18.2665C22.4872 17.8699 22.6448 17.4895 22.9252 17.209C23.2057 16.9285 23.5861 16.7709 23.9828 16.7709Z" fill="#232224"/>
<path d="M16.3449 20.8171H16.1908C15.6734 20.8171 15.1773 20.6116 14.8114 20.2457C14.4456 19.8799 14.2401 19.3838 14.2401 18.8664V18.2259C14.2401 17.8401 14.3934 17.4701 14.6662 17.1973C14.939 16.9245 15.309 16.7713 15.6948 16.7713H16.8481C17.2448 16.7713 17.6253 16.9289 17.9059 17.2094C18.1864 17.4899 18.344 17.8704 18.344 18.2671V18.8179C18.344 19.3481 18.1334 19.8566 17.7585 20.2315C17.3836 20.6065 16.8751 20.8171 16.3449 20.8171Z" fill="#232224"/>
<path d="M13.1862 16.4055V18.547L14.2568 17.4761L13.1862 16.4055Z" fill="#232224"/>
<path d="M27.7437 18.6488V16.3038L26.5714 17.4762L27.7437 18.6488Z" fill="#232224"/>
<path d="M14.2567 15.167V17.4759L16.2688 19.4879L18.2679 17.4876L16.3223 15.5101L16.6477 15.8352L18.1878 14.2942C18.3226 14.1594 18.3983 13.9766 18.3983 13.786C18.3983 13.5953 18.3226 13.4125 18.1878 13.2777L16.6029 11.6934C16.468 11.5585 16.3922 11.3757 16.3922 11.185V7.72369C15.5528 8.0359 14.8069 8.55708 14.2251 9.23794L15.2581 10.2679C15.3249 10.3346 15.3779 10.4139 15.414 10.5011C15.4502 10.5883 15.4688 10.6818 15.4688 10.7763V11.5691C15.4688 11.6634 15.4874 11.7569 15.5236 11.8441C15.5597 11.9312 15.6127 12.0104 15.6794 12.0771L16.8807 13.2783C17.0154 13.4131 17.0912 13.5959 17.0912 13.7866C17.0912 13.9772 17.0154 14.16 16.8807 14.2948L16.5095 14.6662C16.4425 14.7333 16.3627 14.7864 16.275 14.8225C16.1873 14.8587 16.0933 14.8771 15.9984 14.8767C15.9035 14.8763 15.8097 14.8572 15.7222 14.8204C15.6348 14.7836 15.5555 14.7299 15.4889 14.6623C15.3889 14.5601 15.2607 14.4902 15.1207 14.4613C14.9807 14.4324 14.8353 14.4459 14.703 14.5001C14.5707 14.5543 14.4576 14.6467 14.3781 14.7655C14.2986 14.8843 14.2563 15.0241 14.2567 15.167Z" fill="#232224"/>
<path d="M25.5711 10.2688L26.6547 9.18524C26.0536 8.50574 25.2898 7.99008 24.4349 7.68665V11.1868C24.4348 11.3775 24.3591 11.5603 24.2242 11.6951L22.6396 13.2795C22.5048 13.4143 22.4291 13.5971 22.4291 13.7877C22.4291 13.9783 22.5048 14.1612 22.6396 14.2959L24.1797 15.8361L24.502 15.514L22.5592 17.4885L24.5583 19.4882L26.5707 17.4761V15.1679C26.5706 15.0253 26.5281 14.8859 26.4486 14.7675C26.3691 14.6491 26.2562 14.557 26.1242 14.503C25.9922 14.449 25.8471 14.4355 25.7074 14.4641C25.5677 14.4928 25.4397 14.5624 25.3397 14.664C25.2731 14.7316 25.1938 14.7854 25.1064 14.8222C25.0189 14.859 24.9251 14.8781 24.8302 14.8785C24.7353 14.8789 24.6413 14.8604 24.5536 14.8243C24.4658 14.7882 24.3861 14.735 24.319 14.668L23.9485 14.295C23.8138 14.1603 23.738 13.9774 23.738 13.7868C23.738 13.5962 23.8138 13.4134 23.9485 13.2786L25.1501 12.0774C25.2169 12.0107 25.2698 11.9315 25.306 11.8443C25.3421 11.7572 25.3607 11.6637 25.3607 11.5693V10.7771C25.3607 10.6827 25.3792 10.5892 25.4153 10.502C25.4514 10.4148 25.5044 10.3355 25.5711 10.2688Z" fill="#232224"/>
<path d="M20.4921 7.04318C20.5165 7.04318 20.5409 7.04108 20.565 7.04108H20.3287C20.3534 7.04108 20.3772 7.04288 20.4018 7.04318C19.8231 7.04707 19.2451 7.08527 18.6709 7.15756V11.1682C18.6705 11.3704 18.749 11.5647 18.8897 11.7099L19.8059 12.6565C19.8771 12.7301 19.9622 12.7889 20.0563 12.8296C20.1503 12.8702 20.2515 12.8918 20.3539 12.8931C20.4564 12.8945 20.5581 12.8756 20.6532 12.8375C20.7483 12.7995 20.8349 12.743 20.9081 12.6713L21.8881 11.7123C21.962 11.64 22.0208 11.5537 22.0609 11.4584C22.101 11.3631 22.1216 11.2607 22.1217 11.1573V7.14522C21.5808 7.08126 21.0368 7.04719 20.4921 7.04318Z" fill="#232224"/>
<path d="M19.0967 21.0618L19.1292 21.094L20.1375 22.1023C20.2088 22.1734 20.3054 22.2133 20.4061 22.2133C20.5068 22.2133 20.6034 22.1734 20.6747 22.1023L21.8037 20.9736L19.0967 21.0618Z" fill="#19171A"/>
<path d="M19.7244 27.873C19.9625 27.886 20.204 27.8937 20.4488 27.8961C20.4241 27.8961 20.4001 27.8961 20.3757 27.8961H20.612C20.5876 27.8961 20.5635 27.8961 20.5391 27.8961C20.7173 27.894 20.8934 27.8889 21.0685 27.8814V26.186C21.0685 26.0078 20.9976 25.8369 20.8716 25.7109C20.7456 25.5849 20.5746 25.5142 20.3965 25.5142C20.3082 25.5141 20.2208 25.5315 20.1393 25.5652C20.0577 25.599 19.9836 25.6484 19.9212 25.7108C19.8588 25.7732 19.8093 25.8473 19.7755 25.9288C19.7417 26.0103 19.7244 26.0977 19.7244 26.186V27.873Z" fill="#232224"/>
<path d="M13.1862 22.4884C13.1862 25.4181 14.9752 26.9616 17.5441 27.575L18.6992 26.4201C18.7709 26.3481 18.8114 26.2508 18.8118 26.1492V23.7215L20.0949 23.4548L18.7387 22.0989C18.6958 22.056 18.6434 22.0239 18.5857 22.0052C18.528 21.9864 18.4668 21.9816 18.4069 21.9911C18.347 22.0005 18.2902 22.024 18.2411 22.0596C18.192 22.0951 18.152 22.1418 18.1244 22.1958L17.2371 23.9316C17.2095 23.9856 17.1695 24.0322 17.1205 24.0678C17.0714 24.1034 17.0146 24.1269 16.9547 24.1363C16.8949 24.1458 16.8336 24.1409 16.776 24.1222C16.7183 24.1035 16.6659 24.0713 16.6231 24.0285L15.7593 23.1644C15.7235 23.1287 15.6951 23.0864 15.6757 23.0397C15.6564 22.9931 15.6464 22.9431 15.6464 22.8926C15.6464 22.8421 15.6564 22.7921 15.6757 22.7454C15.6951 22.6988 15.7235 22.6564 15.7593 22.6208L16.5921 21.7874C16.6278 21.7517 16.6561 21.7093 16.6755 21.6627C16.6948 21.6161 16.7048 21.5661 16.7048 21.5156C16.7048 21.4651 16.6948 21.4151 16.6755 21.3685C16.6561 21.3218 16.6278 21.2795 16.5921 21.2438L16.4819 21.1336C16.4097 21.0616 16.3119 21.0212 16.21 21.0212C16.108 21.0212 16.0102 21.0616 15.938 21.1336L15.1049 21.9671C15.0328 22.0392 14.935 22.0797 14.833 22.0797C14.731 22.0797 14.6332 22.0392 14.561 21.9671L13.1862 20.5925V22.4884Z" fill="#232224"/>
<path d="M27.7438 22.4884C27.7438 25.4181 25.955 26.9616 23.3855 27.575L22.2307 26.4201C22.1589 26.3482 22.1185 26.2508 22.1181 26.1492V23.7215L20.8353 23.4548L22.1897 22.0989C22.2326 22.056 22.2851 22.0238 22.3428 22.005C22.4005 21.9863 22.4618 21.9814 22.5217 21.9908C22.5817 22.0003 22.6385 22.0238 22.6876 22.0594C22.7368 22.095 22.7767 22.1418 22.8044 22.1958L23.6913 23.9316C23.719 23.9856 23.7589 24.0323 23.8081 24.068C23.8572 24.1036 23.914 24.1271 23.974 24.1365C24.0339 24.146 24.0952 24.1411 24.1529 24.1223C24.2106 24.1036 24.2631 24.0714 24.306 24.0285L25.1695 23.1644C25.2052 23.1287 25.2336 23.0864 25.253 23.0397C25.2723 22.9931 25.2823 22.9431 25.2823 22.8926C25.2823 22.8421 25.2723 22.7921 25.253 22.7454C25.2336 22.6988 25.2052 22.6564 25.1695 22.6208L24.3367 21.7874C24.301 21.7517 24.2726 21.7093 24.2533 21.6627C24.234 21.616 24.2241 21.5661 24.2241 21.5156C24.2241 21.4651 24.234 21.4151 24.2533 21.3685C24.2726 21.3219 24.301 21.2795 24.3367 21.2438L24.4468 21.1336C24.519 21.0616 24.6168 21.0212 24.7188 21.0212C24.8207 21.0212 24.9185 21.0616 24.9907 21.1336L25.8238 21.9671C25.896 22.0392 25.9939 22.0797 26.0959 22.0797C26.1979 22.0797 26.2958 22.0392 26.368 21.9671L27.7426 20.5925L27.7438 22.4884Z" fill="#232224"/>
<path d="M19.7244 18.8555C19.9627 18.8684 20.2038 18.1822 20.4488 18.1849C20.4241 18.1849 20.4001 18.1867 20.3757 18.1867H20.612C20.5876 18.1867 20.5635 18.1849 20.5391 18.1849C20.7173 18.1831 20.8934 18.8712 21.0685 18.8639V16.475C21.0685 16.2968 20.9976 16.1259 20.8716 16C20.7456 15.874 20.5746 15.8032 20.3965 15.8032C20.2183 15.8032 20.0474 15.874 19.9213 16C19.7953 16.1259 19.7244 16.2968 19.7244 16.475V18.8555Z" fill="#232224"/>
<path d="M21.8442 20.7045C21.8442 21.289 21.2103 21.7624 20.4278 21.7624C19.6452 21.7624 19.0114 21.289 19.0114 20.7045C19.0114 20.1199 19.6455 17.5661 20.4278 17.5661C21.21 17.5661 21.8442 20.1206 21.8442 20.7045Z" fill="#A71C3E"/>
<path d="M20.436 21.2059C20.8617 21.2059 21.2068 20.8608 21.2068 20.4351C21.2068 20.0094 20.8617 19.6643 20.436 19.6643C20.0103 19.6643 19.6652 20.0094 19.6652 20.4351C19.6652 20.8608 20.0103 21.2059 20.436 21.2059Z" fill="#BA2A53"/>
<path d="M20.3823 20.4953L19.2573 19.4419C19.1413 19.8261 19.0607 20.2201 19.0165 20.619C19.0165 20.6572 19.0165 20.6997 19.0165 20.7445C19.0466 21.3092 19.6663 21.7609 20.4311 21.7609C21.2136 21.7609 21.8475 21.2875 21.8475 20.703C21.812 20.2708 21.7287 19.8439 21.5989 19.4301L20.3823 20.4953Z" fill="#232224"/>
<path d="M24.486 15.6145H24.6404C25.1578 15.6145 25.6539 15.82 26.0197 16.1858C26.3856 16.5517 26.5911 17.0478 26.5911 17.5652V18.206C26.5911 18.5918 26.4378 18.9618 26.165 19.2346C25.8922 19.5074 25.5222 19.6606 25.1364 19.6606H23.9828C23.5861 19.6606 23.2057 19.5031 22.9252 19.2226C22.6448 18.9421 22.4872 18.5617 22.4872 18.165V17.6133C22.4872 17.3508 22.5389 17.0909 22.6393 16.8484C22.7398 16.6059 22.887 16.3856 23.0726 16.1999C23.2582 16.0143 23.4786 15.8671 23.7211 15.7667C23.9636 15.6662 24.2235 15.6145 24.486 15.6145Z" fill="white"/>
<path d="M24.5392 19.068C24.3559 19.0671 24.1804 18.9939 24.0507 18.8642C23.9211 18.7346 23.8479 18.5591 23.8469 18.3758V16.8432C23.8474 16.6596 23.9204 16.4836 24.0501 16.3537C24.1798 16.2237 24.3556 16.1503 24.5392 16.1494C24.7227 16.1504 24.8985 16.2238 25.0282 16.3538C25.1578 16.4837 25.2309 16.6596 25.2314 16.8432V18.3743C25.2309 18.5578 25.1578 18.7338 25.0282 18.8637C24.8985 18.9936 24.7227 19.0671 24.5392 19.068Z" fill="#9C7C45"/>
<path d="M16.8481 19.6609H15.6948C15.5037 19.6609 15.3146 19.6233 15.1381 19.5502C14.9616 19.4771 14.8012 19.37 14.6662 19.2349C14.5311 19.0998 14.4239 18.9395 14.3508 18.763C14.2777 18.5865 14.2401 18.3973 14.2401 18.2063V17.5652C14.2401 17.0479 14.4456 16.5518 14.8114 16.1861C15.1771 15.8203 15.6732 15.6148 16.1905 15.6148H16.3449C16.8751 15.6148 17.3836 15.8255 17.7585 16.2004C18.1334 16.5753 18.344 17.0838 18.344 17.614V18.1651C18.344 18.5618 18.1864 18.9423 17.9059 19.2228C17.6253 19.5033 17.2448 19.6609 16.8481 19.6609Z" fill="white"/>
<path d="M16.2923 19.068C16.4757 19.0672 16.6512 18.994 16.7809 18.8643C16.9105 18.7347 16.9837 18.5591 16.9846 18.3758V16.8432C16.9841 16.6596 16.9111 16.4836 16.7814 16.3537C16.6517 16.2237 16.4759 16.1503 16.2923 16.1494C16.1084 16.1498 15.9322 16.223 15.8021 16.353C15.672 16.483 15.5987 16.6593 15.5983 16.8432V18.3743C15.5988 18.5582 15.6721 18.7343 15.8022 18.8643C15.9322 18.9943 16.1085 19.0676 16.2923 19.068Z" fill="#9C7C45"/>
<path d="M22.7399 23.3642C22.7399 23.4041 22.7321 23.4436 22.7169 23.4804C22.7017 23.5173 22.6793 23.5508 22.6511 23.579C22.623 23.6072 22.5895 23.6295 22.5527 23.6448C22.5159 23.6601 22.4764 23.6679 22.4365 23.6679H18.3206C18.2807 23.668 18.2412 23.6601 18.2044 23.6449C18.1675 23.6296 18.1341 23.6073 18.1059 23.5791C18.0777 23.5508 18.0554 23.5173 18.0401 23.4805C18.0249 23.4436 18.0171 23.4041 18.0172 23.3642C18.0172 23.2838 18.0492 23.2066 18.1061 23.1497C18.163 23.0928 18.2401 23.0609 18.3206 23.0609H22.4362C22.5167 23.0609 22.5938 23.0928 22.6507 23.1497C22.7076 23.2066 22.7396 23.2838 22.7396 23.3642H22.7399Z" fill="#19171A"/>
<path d="M21.2064 20.4351C21.2067 20.2515 21.141 20.0738 21.0213 19.9346L21.002 19.9517C20.8395 20.0939 20.6318 20.1736 20.4159 20.1767C20.2001 20.1798 19.9902 20.106 19.8237 19.9686C19.7496 20.0659 19.6997 20.1794 19.6783 20.2998C19.6568 20.4202 19.6642 20.5439 19.7001 20.6608C19.7359 20.7778 19.799 20.8845 19.8843 20.9721C19.9695 21.0598 20.0744 21.1259 20.1903 21.165C20.3062 21.2041 20.4297 21.215 20.5506 21.1969C20.6715 21.1788 20.7864 21.1321 20.8857 21.0608C20.9851 20.9895 21.066 20.8955 21.1218 20.7867C21.1776 20.6779 21.2067 20.5574 21.2067 20.4351H21.2064Z" fill="#2F2D30"/>
<path d="M20.5175 14.7983H20.2749C20.1028 14.7983 19.9376 14.7299 19.8159 14.6082C19.6941 14.4864 19.6257 14.3213 19.6257 14.1491C19.6257 13.9769 19.6941 13.8117 19.8159 13.6899C19.9376 13.5681 20.1027 13.4997 20.2749 13.4996H20.5175C20.6028 13.4996 20.6873 13.5164 20.7661 13.549C20.8449 13.5817 20.9165 13.6295 20.9768 13.6898C21.0371 13.7501 21.085 13.8217 21.1176 13.9005C21.1503 13.9793 21.1671 14.0638 21.1671 14.1491C21.167 14.3213 21.0985 14.4864 20.9767 14.6082C20.8549 14.7299 20.6898 14.7983 20.5175 14.7983Z" fill="#232224"/>
<path d="M21.3047 8.44814C21.3047 8.68235 21.2117 8.90697 21.0461 9.07258C20.8805 9.23819 20.6559 9.33123 20.4217 9.33123C20.1874 9.33123 19.9628 9.23819 19.7972 9.07258C19.6316 8.90697 19.5386 8.68235 19.5386 8.44814C19.6592 7.82822 19.8454 7.22286 20.0939 6.64224C20.1192 6.57587 20.1641 6.51874 20.2226 6.47844C20.2811 6.43814 20.3505 6.41656 20.4215 6.41656C20.4925 6.41656 20.5619 6.43814 20.6204 6.47844C20.6789 6.51874 20.7238 6.57587 20.7491 6.64224C20.9978 7.22281 21.1841 7.82818 21.3047 8.44814Z" fill="#9C7C45"/>
<path d="M16.1612 8.51855C16.1612 8.75275 16.0681 8.97737 15.9025 9.14298C15.7369 9.30859 15.5123 9.40163 15.2781 9.40163C15.0439 9.40163 14.8193 9.30859 14.6537 9.14298C14.4881 8.97737 14.395 8.75275 14.395 8.51855C14.5157 7.89863 14.7019 7.29328 14.9503 6.71264C14.9756 6.64617 15.0205 6.58895 15.079 6.54857C15.1376 6.5082 15.207 6.48657 15.2781 6.48657C15.3492 6.48657 15.4186 6.5082 15.4772 6.54857C15.5357 6.58895 15.5806 6.64617 15.6059 6.71264C15.8544 7.29324 16.0406 7.89861 16.1612 8.51855Z" fill="#9C7C45"/>
<path d="M26.4493 8.51855C26.4493 8.63451 26.4264 8.74935 26.382 8.85649C26.3377 8.96363 26.2726 9.06098 26.1906 9.14298C26.1086 9.22498 26.0113 9.29003 25.9041 9.33441C25.797 9.37879 25.6822 9.40163 25.5662 9.40163C25.4502 9.40163 25.3354 9.37879 25.2282 9.33441C25.1211 9.29003 25.0238 9.22498 24.9418 9.14298C24.8598 9.06098 24.7947 8.96363 24.7503 8.85649C24.7059 8.74935 24.6831 8.63451 24.6831 8.51855C24.8038 7.89862 24.9899 7.29326 25.2384 6.71264C25.2637 6.64617 25.3086 6.58895 25.3671 6.54857C25.4256 6.5082 25.4951 6.48657 25.5662 6.48657C25.6373 6.48657 25.7067 6.5082 25.7653 6.54857C25.8238 6.58895 25.8687 6.64617 25.894 6.71264C26.1425 7.29323 26.3287 7.8986 26.4493 8.51855Z" fill="#9C7C45"/>
<path d="M10.1112 31.9488C9.4463 32.0214 8.79069 32.1626 8.15483 32.3702V32.3678C8.12985 32.3759 8.10607 32.3855 8.08139 32.3936C8.0224 32.4137 7.96371 32.4351 7.90532 32.4578C7.84512 32.48 7.78492 32.5044 7.72473 32.5282C7.67145 32.5496 7.61818 32.5715 7.56581 32.5941C7.49749 32.6242 7.43067 32.6558 7.36415 32.6877C7.32292 32.7076 7.28138 32.7265 7.24075 32.7479C7.134 32.8021 7.02986 32.8587 6.92833 32.9177C6.87054 32.9571 6.81305 32.9971 6.75677 33.0381C6.70721 33.0746 6.65825 33.1124 6.60989 33.1515L6.59243 33.1651C5.96842 33.6924 5.4465 34.3298 5.05261 35.0456C7.26612 37.3995 9.9874 39.2174 13.0094 40.361L10.1112 31.9488Z" fill="#19171A"/>
<path d="M35.9024 35.093C35.6378 34.5659 35.2876 34.0864 34.8661 33.6739C34.8598 33.6678 34.8528 33.6621 34.8465 33.6555C34.7944 33.6055 34.7412 33.5565 34.687 33.5089L34.6521 33.4788C34.5237 33.3675 34.3894 33.2624 34.2494 33.1637L34.2093 33.1366C34.1524 33.0965 34.0945 33.0579 34.0357 33.021L33.9848 32.9888C33.9189 32.9482 33.8518 32.9082 33.7835 32.8684L33.7654 32.8579C33.6895 32.8155 33.6121 32.7746 33.533 32.7351C33.5183 32.7273 33.5029 32.7203 33.4882 32.7128C33.425 32.6827 33.3612 32.6526 33.2962 32.6225C33.2745 32.6129 33.2531 32.6036 33.2318 32.5924C33.1655 32.5633 33.0984 32.5355 33.0304 32.509L32.9855 32.4904C32.9017 32.4577 32.8165 32.4261 32.73 32.3956L32.6873 32.3817C32.6153 32.3567 32.5425 32.3339 32.4688 32.311C32.4435 32.3032 32.4188 32.2953 32.3935 32.2881C32.3243 32.268 32.2545 32.2481 32.1828 32.2279C32.1615 32.2222 32.1401 32.2159 32.1184 32.2105C32.0263 32.1864 31.9333 32.1635 31.8385 32.1418L31.8126 32.1364C31.7271 32.1172 31.6408 32.0994 31.5532 32.0817L31.4719 32.0663C31.3979 32.0522 31.3232 32.0392 31.2474 32.0269C31.2215 32.0221 31.1962 32.0178 31.1697 32.0139L31.1207 32.0052C30.9268 31.9751 30.7294 31.9486 30.525 31.9272L27.6383 40.4863C30.7783 39.3625 33.6094 37.5148 35.9024 35.093Z" fill="#19171A"/>
</g>
</svg>
