<svg width="41" height="41" viewBox="0 0 41 41" fill="none" xmlns="http://www.w3.org/2000/svg">
<circle cx="20.5" cy="20.5" r="20.5" fill="#7FC33E"/>
<path d="M25.4703 32.0078C24.6296 31.7221 23.8998 31.1796 23.3839 30.457C22.868 29.7343 22.5921 28.8679 22.5951 27.9799V23.269H18.7082V27.9868C18.7109 28.8733 18.4356 29.7384 17.9211 30.4603C17.4066 31.1823 16.6787 31.7248 15.8399 32.0115C14.4515 32.4829 13.1817 33.2495 12.1178 34.2584C11.0539 35.2674 10.2212 36.4949 9.677 37.8563C12.9579 39.9366 16.7686 41.0278 20.6533 40.9993C24.538 40.9709 28.3323 39.824 31.5823 37.6959C31.0252 36.3686 30.1921 35.175 29.1383 34.1943C28.0845 33.2136 26.8342 32.4682 25.4703 32.0078Z" fill="#DDAD73"/>
<path d="M18.3244 40.8813L7.31805 15.2532C7.18919 14.9491 6.94478 14.7086 6.6386 14.5847C6.33243 14.4608 5.98956 14.4635 5.68543 14.5924C5.3813 14.7213 5.14082 14.9657 5.01689 15.2719C4.89296 15.578 4.89573 15.9209 5.0246 16.225L15.0678 40.2554C16.1343 40.553 17.2235 40.7624 18.3244 40.8813Z" fill="#605C5F"/>
<path d="M14.1044 29.3519C13.9098 28.8997 13.5435 28.5432 13.0861 28.361C12.6287 28.1788 12.1176 28.1858 11.6654 28.3804C11.2131 28.575 10.8567 28.9413 10.6745 29.3987C10.4923 29.8561 10.4993 30.3671 10.6939 30.8194L14.6864 40.147C16.1304 40.5788 17.6182 40.8473 19.1221 40.9478L14.1044 29.3519Z" fill="#504D50"/>
<path d="M8.2687 20.3448C8.03546 20.4646 7.77984 20.5344 7.51812 20.5498C7.2564 20.5653 6.99433 20.5261 6.74861 20.4346C6.50289 20.3432 6.27892 20.2016 6.09097 20.0188C5.90301 19.836 5.7552 19.6161 5.65696 19.373L3.81037 14.8068C3.62816 14.381 3.61167 13.9026 3.76412 13.4653C3.91657 13.028 4.22696 12.6635 4.63436 12.4433C4.86085 12.3209 5.1103 12.247 5.36688 12.2262C5.62346 12.2054 5.88157 12.2381 6.12482 12.3224C6.36807 12.4066 6.59114 12.5405 6.77987 12.7156C6.9686 12.8907 7.11887 13.1031 7.22114 13.3393L9.14751 17.9363C9.33119 18.3748 9.34258 18.8666 9.17938 19.3132C9.01618 19.7598 8.69044 20.1283 8.26727 20.3451L8.2687 20.3448Z" fill="#504D50"/>
<path d="M14.8789 21.7566C17.0514 21.7566 18.8126 19.9954 18.8126 17.8229C18.8126 15.6504 17.0514 13.8892 14.8789 13.8892C12.7064 13.8892 10.9452 15.6504 10.9452 17.8229C10.9452 19.9954 12.7064 21.7566 14.8789 21.7566Z" fill="#F4A168"/>
<path d="M26.5641 21.7566C28.7366 21.7566 30.4977 19.9954 30.4977 17.8229C30.4977 15.6504 28.7366 13.8892 26.5641 13.8892C24.3915 13.8892 22.6304 15.6504 22.6304 17.8229C22.6304 19.9954 24.3915 21.7566 26.5641 21.7566Z" fill="#F4A168"/>
<path d="M15.8396 32.0116C14.7915 32.3661 13.8089 32.8909 12.9314 33.5649H18.811L20.6751 35.4304L22.4941 33.5649H28.3923C27.511 32.8879 26.5235 32.3617 25.4701 32.0079C24.6813 31.74 23.989 31.2454 23.4799 30.586C22.9709 29.9267 22.6676 29.1318 22.608 28.3009H18.6959C18.6374 29.1317 18.3353 29.9269 17.8273 30.5869C17.3192 31.2469 16.6278 31.7425 15.8396 32.0116Z" fill="#F9B382"/>
<path d="M22.5951 27.9799V23.269H18.7082V27.1049V27.9868C18.7082 28.1102 18.7021 28.2322 18.6915 28.3539C19.3012 28.6529 19.9692 28.8138 20.6481 28.8253C21.327 28.8367 22.0001 28.6984 22.6195 28.4202C22.6038 28.274 22.5956 28.127 22.5951 27.9799Z" fill="#F4A168"/>
<path d="M28.4615 13.9265C28.3926 8.64789 24.8527 6.22528 20.5881 6.22528C16.2807 6.22528 12.7861 8.69639 12.7861 14.0875V18.974C12.7861 23.7865 17.1225 27.7234 20.5797 27.7234C24.037 27.7234 28.4615 23.7865 28.4615 18.974V13.9265Z" fill="#F9B382"/>
<path d="M27.5753 15.8394C27.5147 10.8364 24.3973 8.10034 20.6418 8.10034C16.8487 8.10034 13.7715 10.8843 13.7715 15.993V18.3091C13.7715 22.8696 17.5901 26.6009 20.6346 26.6009C23.6792 26.6009 27.5755 22.8699 27.5755 18.3091L27.5753 15.8394Z" fill="#FAC29C"/>
<path d="M22.0281 20.9232C22.0281 21.4803 21.4237 21.9317 20.6778 21.9317C19.9319 21.9317 19.3271 21.4803 19.3271 20.9232C19.3271 20.3661 19.9319 17.9303 20.6778 17.9303C21.4237 17.9303 22.0281 20.3661 22.0281 20.9232Z" fill="#F58771"/>
<path d="M27.2882 17.9854H23.3445L24.4009 19.9276H25.3463C25.8614 19.9275 26.3553 19.7228 26.7195 19.3586C27.0836 18.9944 27.2882 18.5005 27.2882 17.9854Z" fill="#BA835A"/>
<path d="M24.5467 16.0692H24.6933C24.9378 16.0689 25.1799 16.1168 25.4058 16.2101C25.6318 16.3035 25.8371 16.4405 26.0101 16.6132C26.183 16.786 26.3203 16.9911 26.4139 17.2169C26.5075 17.4428 26.5557 17.6848 26.5557 17.9293V18.5409C26.5557 18.9087 26.4096 19.2614 26.1495 19.5215C25.8894 19.7816 25.5367 19.9277 25.1689 19.9277H24.0676C23.6893 19.9277 23.3265 19.7774 23.059 19.5099C22.7915 19.2424 22.6412 18.8796 22.6412 18.5013V17.9755C22.6412 17.4701 22.842 16.9853 23.1993 16.6279C23.5566 16.2704 24.0412 16.0694 24.5467 16.0692Z" fill="white"/>
<path d="M24.5978 19.3622C24.4228 19.3618 24.255 19.2921 24.131 19.1685C24.0071 19.0448 23.9371 18.8772 23.9363 18.7021V17.2407C23.9372 17.0656 24.0072 16.898 24.1311 16.7744C24.255 16.6508 24.4228 16.5811 24.5978 16.5806C24.7726 16.5814 24.9401 16.6512 25.0637 16.7748C25.1873 16.8984 25.2571 17.0659 25.2579 17.2407V18.7012C25.2574 18.8762 25.1877 19.0439 25.0641 19.1677C24.9404 19.2915 24.7728 19.3615 24.5978 19.3622Z" fill="#835932"/>
<path d="M14.0422 17.9855H17.9868L16.9307 19.9277H15.985C15.7299 19.9278 15.4773 19.8776 15.2416 19.78C15.0059 19.6825 14.7917 19.5394 14.6113 19.3591C14.4309 19.1787 14.2878 18.9646 14.1901 18.7289C14.0925 18.4932 14.0422 18.2406 14.0422 17.9855Z" fill="#BA835A"/>
<path d="M17.2639 19.9276H16.1638C15.9816 19.9276 15.8012 19.8917 15.6329 19.8219C15.4646 19.7522 15.3117 19.65 15.1829 19.5212C15.0542 19.3923 14.952 19.2394 14.8824 19.0711C14.8127 18.9027 14.7769 18.7223 14.777 18.5402V17.9286C14.777 17.4352 14.9729 16.9621 15.3218 16.6133C15.6706 16.2645 16.1437 16.0685 16.637 16.0685H16.7846C17.2901 16.0685 17.7749 16.2693 18.1323 16.6267C18.4897 16.9842 18.6906 17.469 18.6906 17.9745V18.5014C18.6906 18.8797 18.5403 19.2424 18.2728 19.5098C18.0054 19.7773 17.6427 19.9276 17.2644 19.9276H17.2639Z" fill="white"/>
<path d="M16.7331 19.3622C16.9082 19.3618 17.076 19.2922 17.2 19.1685C17.3239 19.0449 17.3939 18.8772 17.3947 18.7021V17.2407C17.3938 17.0656 17.3238 16.898 17.1999 16.7743C17.076 16.6507 16.9082 16.581 16.7331 16.5806C16.5583 16.5814 16.3909 16.6512 16.2673 16.7748C16.1436 16.8984 16.0738 17.0659 16.073 17.2407V18.7012C16.0735 18.8762 16.1432 19.0439 16.2669 19.1677C16.3905 19.2915 16.5581 19.3615 16.7331 19.3622Z" fill="#835932"/>
<path d="M19.1982 23.4142C19.1982 23.9621 19.8552 24.4064 20.6657 24.4064C21.4762 24.4064 22.1332 23.9621 22.1332 23.4142" fill="#C28155"/>
<path d="M18.6899 23.7961C18.6899 23.2201 19.5745 22.7529 20.6654 22.7529C21.7563 22.7529 22.6408 23.2201 22.6408 23.7961" fill="#D79667"/>
<path d="M20.6852 21.4008C21.0912 21.4008 21.4202 21.0717 21.4202 20.6658C21.4202 20.2599 21.0912 19.9308 20.6852 19.9308C20.2793 19.9308 19.9502 20.2599 19.9502 20.6658C19.9502 21.0717 20.2793 21.4008 20.6852 21.4008Z" fill="#F79E8E"/>
<path d="M22.6415 8.37645H18.7012V6.3634C18.7011 6.10456 18.7521 5.84825 18.8512 5.60911C18.9502 5.36998 19.0954 5.1527 19.2785 4.9697C19.4615 4.7867 19.6788 4.64157 19.918 4.54258C20.1572 4.4436 20.4135 4.39271 20.6723 4.39282C20.9311 4.39286 21.1873 4.44386 21.4263 4.54291C21.6653 4.64196 21.8825 4.78712 22.0654 4.97011C22.2484 5.15309 22.3935 5.37032 22.4925 5.60938C22.5914 5.84844 22.6424 6.10465 22.6423 6.3634L22.6415 8.37645Z" fill="#704C28"/>
<path d="M20.5881 6.22528C16.2807 6.22528 12.7861 8.69639 12.7861 14.0875V25.5728C12.787 25.6525 12.8182 25.7288 12.8733 25.7862C12.9285 25.8436 13.0035 25.8778 13.083 25.8819C13.1625 25.8859 13.2406 25.8595 13.3013 25.808C13.362 25.7565 13.4008 25.6838 13.4098 25.6047L14.7257 12.7211C15.455 11.8721 16.3633 11.1953 17.3853 10.7392C18.4073 10.2831 19.5177 10.0591 20.6366 10.0832C21.7419 10.0619 22.8388 10.2787 23.8528 10.719C24.8669 11.1593 25.7742 11.8128 26.5133 12.635L27.8381 25.6035C27.8465 25.6831 27.885 25.7564 27.9458 25.8084C28.0066 25.8603 28.085 25.887 28.1649 25.8829C28.2447 25.8789 28.32 25.8443 28.3752 25.7864C28.4304 25.7285 28.4612 25.6517 28.4615 25.5717V13.9265C28.3926 8.64789 24.8527 6.22528 20.5881 6.22528Z" fill="#835932"/>
<path d="M20.6418 8.10034C16.8487 8.10034 13.7715 10.8843 13.7715 15.993V18.3091C13.7729 18.9134 13.8402 19.5158 13.9724 20.1055L14.6161 13.7968C14.6548 13.403 14.7708 13.0206 14.9575 12.6716C15.1441 12.3227 15.3978 12.0139 15.7039 11.7631C17.1039 10.6485 18.8477 10.055 20.6369 10.0838C22.3904 10.0593 24.1017 10.6227 25.4976 11.6842C25.8159 11.9343 26.0802 12.2463 26.2744 12.6015C26.4685 12.9567 26.5886 13.3477 26.6273 13.7506L27.3046 20.3841C27.4834 19.706 27.5744 19.0078 27.5753 18.3065V15.8383C27.5147 10.8364 24.3973 8.10034 20.6418 8.10034Z" fill="#926339"/>
<path d="M24.9826 31.8048C24.8738 31.7524 24.768 31.6957 24.6652 31.6346C24.6523 31.6269 24.6382 31.6212 24.6253 31.6134H24.613L20.8862 40.991C20.9149 40.991 20.9454 40.991 20.9746 40.991C24.7496 40.9091 28.4255 39.7672 31.5826 37.6959C31.0254 36.3683 30.1922 35.1744 29.1382 34.1936C28.0842 33.2127 26.8336 32.4673 25.4694 32.0069C25.3348 31.9608 25.2026 31.9079 25.0733 31.8485C25.0432 31.8355 25.0131 31.8198 24.9826 31.8048Z" fill="#B99260"/>
<path d="M9.67712 37.8563C12.8726 39.8872 16.5759 40.976 20.362 40.9976H20.3973L16.672 31.624C16.6574 31.6329 16.641 31.6398 16.6261 31.6484C16.5277 31.7058 16.4266 31.76 16.3227 31.8109C16.292 31.8261 16.2613 31.8396 16.23 31.8551C16.1027 31.9138 15.9724 31.966 15.8397 32.0115C14.4514 32.4829 13.1816 33.2495 12.1178 34.2585C11.054 35.2674 10.2213 36.4949 9.67712 37.8563Z" fill="#C99E69"/>
<path d="M14.8477 32.408C14.0443 32.7786 13.2931 33.2533 12.6134 33.8197L15.4203 40.3554C16.4295 40.6164 17.4574 40.7987 18.4947 40.9007L14.8477 32.408Z" fill="#8B5D29"/>
<path d="M13.4565 35.7837L15.4199 40.3554C15.7404 40.4382 16.064 40.5133 16.3906 40.5807L17.9855 39.7153L15.7623 34.5395L13.4565 35.7837Z" fill="#735020"/>
<path d="M5.65855 19.373L3.81196 14.8068C3.62975 14.381 3.61325 13.9026 3.7657 13.4653C3.91816 13.028 4.22855 12.6635 4.63595 12.4433C4.86243 12.3209 5.11189 12.247 5.36847 12.2262C5.62505 12.2054 5.88316 12.2381 6.12641 12.3224C6.36965 12.4066 6.59272 12.5405 6.78146 12.7156C6.97019 12.8907 7.12046 13.1031 7.22272 13.3393L9.1491 17.9363" fill="#605C5F"/>
</g>
</svg>
