<svg width="16" height="8" viewBox="0 0 16 8" fill="none" xmlns="http://www.w3.org/2000/svg">
<path fill-rule="evenodd" clip-rule="evenodd" d="M-9.83453e-08 5.39075L0.624695 4.60988L2.81235 6.36L5 4.60988L5.62469 5.39075L2.81235 7.64062L-9.83453e-08 5.39075Z" fill="#6D6D6D"/>
<path fill-rule="evenodd" clip-rule="evenodd" d="M14.3125 6.5C14.3125 6.66854 14.3049 6.83532 14.2901 7H15.2936C15.3061 6.83498 15.3125 6.66824 15.3125 6.5C15.3125 2.91015 12.4024 0 8.8125 0C5.22265 0 2.3125 2.91015 2.3125 6.5C2.3125 6.57679 2.31383 6.65327 2.31647 6.72942L3.33757 5.9714C3.60358 3.18182 5.95324 1 8.8125 1C11.8501 1 14.3125 3.46243 14.3125 6.5Z" fill="#6D6D6D"/>
</svg>
