<svg width="15" height="15" viewBox="0 0 15 15" fill="none" xmlns="http://www.w3.org/2000/svg">
<path d="M5.73154 1H9.26852V3.76171C9.47019 3.85774 9.66286 3.9697 9.84491 4.09594L12.2315 2.71474L14 5.78519L11.6133 7.16649C11.622 7.2765 11.6265 7.38773 11.6265 7.5C11.6265 7.61225 11.622 7.72346 11.6133 7.83345L14 9.21474L12.2315 12.2852L9.84496 10.904C9.66289 11.0303 9.47019 11.1423 9.26848 11.2383V14H5.7315V11.2383C5.5298 11.1423 5.3371 11.0303 5.15503 10.904L2.76849 12.2852L1 9.21474L3.38673 7.83346C3.37798 7.72346 3.37352 7.61225 3.37352 7.5C3.37352 7.3877 3.37798 7.27645 3.38674 7.16641L1 5.78512L2.76849 2.71467L5.15514 4.0959C5.33719 3.96966 5.52986 3.85771 5.73154 3.76168V1Z" stroke="#6D6D6D"/>
</svg>
