<svg width="11" height="12" viewBox="0 0 11 12" fill="none" xmlns="http://www.w3.org/2000/svg">
<path d="M5.94731 8.2907C6.65383 8.7959 7.62833 9.12428 8.31049 9.12428C9.50426 9.12428 10.4544 8.11389 10.4544 6.90141C10.4544 6.52252 10.357 6.19414 10.2108 5.89102C10.1864 5.81524 10.1377 5.73946 10.089 5.66368C10.089 5.66368 10.089 5.66368 10.089 5.63842C9.13882 4.0218 5.5575 0.6875 5.5575 0.6875C5.5575 0.6875 1.95182 4.0218 1.00167 5.63842C1.00167 5.63842 1.00167 5.63842 1.00167 5.66368C0.952946 5.73946 0.928583 5.81524 0.879858 5.89102C0.733681 6.19414 0.63623 6.54778 0.63623 6.90141C0.63623 8.13915 1.61074 9.12428 2.78015 9.12428C3.46231 9.12428 4.43682 8.7959 5.14334 8.2907L5.14334 8.77064V8.7959C5.07025 9.20006 4.9728 9.52844 4.85098 9.78103C4.70481 10.0336 4.53427 10.2105 4.33937 10.362C4.14446 10.4883 3.90084 10.5893 3.63285 10.6146C3.36486 10.6399 3.09687 10.6651 2.78015 10.6651L2.78015 11.625L5.14334 11.625L5.94731 11.625L8.31049 11.625L8.31049 10.6651C8.01814 10.6651 7.72579 10.6399 7.4578 10.6146C7.18981 10.5893 6.97054 10.4883 6.75128 10.362C6.55637 10.2357 6.38584 10.0336 6.23966 9.78103C6.09348 9.52844 5.99603 9.20006 5.94731 8.7959V8.77064L5.94731 8.2907Z" fill="#0A0A0A"/>
</svg>
