<svg width="11" height="11" viewBox="0 0 11 11" fill="none" xmlns="http://www.w3.org/2000/svg">
<path d="M5.53811 7.64665C6.27483 8.15473 7.29099 8.48499 8.00231 8.48499C9.24711 8.48499 10.2379 7.46882 10.2379 6.24942C10.2379 5.86836 10.1363 5.53811 9.98383 5.23326C9.95843 5.15704 9.90762 5.08083 9.85681 5.00462C9.85681 5.00462 9.85681 5.00462 9.85681 4.97922C8.86605 3.35335 5.13164 0 5.13164 0C5.13164 0 1.37182 3.35335 0.381062 4.97922C0.381062 4.97922 0.381062 4.97922 0.381062 5.00462C0.330254 5.08083 0.30485 5.15704 0.254042 5.23326C0.101617 5.53811 0 5.89376 0 6.24942C0 7.49423 1.01617 8.48499 2.23557 8.48499C2.94688 8.48499 3.96305 8.15473 4.69977 7.64665V8.12933V8.15473C4.62356 8.5612 4.52194 8.89146 4.39492 9.1455C4.24249 9.39954 4.06467 9.57737 3.86143 9.72979C3.6582 9.85681 3.40416 9.95843 3.12471 9.98383C2.84527 10.0092 2.56582 10.0346 2.23557 10.0346V11H4.69977H5.53811H8.00231V10.0346C7.69746 10.0346 7.39261 10.0092 7.11316 9.98383C6.83372 9.95843 6.60508 9.85681 6.37644 9.72979C6.17321 9.60277 5.99538 9.39954 5.84296 9.1455C5.69053 8.89146 5.58891 8.5612 5.53811 8.15473V8.12933V7.64665Z" fill="#C000FF"/>
</svg>
