<svg width="44" height="13" viewBox="0 0 44 13" fill="none" xmlns="http://www.w3.org/2000/svg">
<rect x="1" y="4" width="17" height="7" rx="3.5" stroke="#363636" stroke-width="0.831127"/>
<circle cx="14.5" cy="7.5" r="4" fill="#F10A4B" stroke="#0D0C10"/>
<path d="M24.2915 8.38184V12H23.0728V2.75781H26.4814C27.4928 2.75781 28.2842 3.01595 28.8555 3.53223C29.431 4.0485 29.7188 4.73193 29.7188 5.58252C29.7188 6.47965 29.4373 7.17155 28.8745 7.6582C28.3159 8.14062 27.514 8.38184 26.4688 8.38184H24.2915ZM24.2915 7.38525H26.4814C27.1331 7.38525 27.6325 7.23291 27.9795 6.92822C28.3265 6.6193 28.5 6.17497 28.5 5.59521C28.5 5.04508 28.3265 4.60498 27.9795 4.2749C27.6325 3.94482 27.1564 3.77344 26.5513 3.76074H24.2915V7.38525ZM34.4097 6.18555C34.2319 6.15592 34.0394 6.14111 33.832 6.14111C33.0618 6.14111 32.5392 6.46908 32.2642 7.125V12H31.0898V5.13184H32.2324L32.2515 5.92529C32.6366 5.31169 33.1825 5.00488 33.8892 5.00488C34.1177 5.00488 34.2912 5.03451 34.4097 5.09375V6.18555ZM35.0571 8.50244C35.0571 7.82959 35.1883 7.22445 35.4507 6.68701C35.7173 6.14958 36.0854 5.73486 36.5552 5.44287C37.0291 5.15088 37.5687 5.00488 38.1738 5.00488C39.109 5.00488 39.8644 5.32861 40.4399 5.97607C41.0197 6.62354 41.3096 7.4847 41.3096 8.55957V8.64209C41.3096 9.31071 41.1805 9.91162 40.9224 10.4448C40.6685 10.9738 40.3024 11.3864 39.8242 11.6826C39.3503 11.9788 38.8044 12.127 38.1865 12.127C37.2555 12.127 36.5002 11.8032 35.9204 11.1558C35.3449 10.5083 35.0571 9.65137 35.0571 8.58496V8.50244ZM36.2378 8.64209C36.2378 9.40381 36.4134 10.0153 36.7646 10.4766C37.1201 10.9378 37.5941 11.1685 38.1865 11.1685C38.7832 11.1685 39.2572 10.9357 39.6084 10.4702C39.9596 10.0005 40.1353 9.34456 40.1353 8.50244C40.1353 7.74919 39.9554 7.13981 39.5957 6.67432C39.2402 6.20459 38.7663 5.96973 38.1738 5.96973C37.5941 5.96973 37.1265 6.20036 36.771 6.66162C36.4155 7.12288 36.2378 7.78304 36.2378 8.64209Z" fill="#B8B8B8"/>
</svg>
