<?xml version="1.0" encoding="utf-8"?>
<!-- Generator: Adobe Illustrator 13.0.0, SVG Export Plug-In . SVG Version: 6.00 Build 14948)  -->
<!DOCTYPE svg PUBLIC "-//W3C//DTD SVG 1.1//EN" "http://www.w3.org/Graphics/SVG/1.1/DTD/svg11.dtd">
<svg version="1.1" id="Layer_1" xmlns="http://www.w3.org/2000/svg" xmlns:xlink="http://www.w3.org/1999/xlink" x="0px" y="0px"
	 width="45px" height="45px" viewBox="0 0 45 45" style="enable-background:new 0 0 45 45;" xml:space="preserve">
<path style="fill:#DBFF00;" d="M22.5,16.5c-1.104,0-2,0.896-2,2s0.896,2,2,2s2-0.896,2-2S23.604,16.5,22.5,16.5z M19.5,18.5
	c0-1.657,1.343-3,3-3c1.656,0,3,1.343,3,3s-1.344,3-3,3C20.843,21.5,19.5,20.157,19.5,18.5z"/>
<path style="fill:none;stroke:#DBFF00;" d="M23,24h-1c-2.761,0-5,2.238-5,5h11C28,26.238,25.762,24,23,24z M22,23
	c-3.313,0-6,2.687-6,6v1h13v-1c0-3.313-2.687-6-6-6H22z"/>
</svg>
